<svg height="150pt" viewBox="0 0 511.99961 511" width="511pt" xmlns="http://www.w3.org/2000/svg"><path d="m511.917969 263c-.0625 2.289062-.152344 4.589844-.269531 6.859375-.011719.128906-.011719.25-.023438.378906-.148438 2.78125-.339844 5.542969-.578125 8.292969-.308594 3.667969-.699219 7.308594-1.171875 10.917969-.296875 2.339843-.628906 4.671875-1 6.992187-.078125.546875-.167969 1.097656-.257812 1.648438-14.808594 90.738281-77.148438 164.988281-160.089844 197.15625-6.9375 2.710937-14 5.089844-21.15625 7.171875-12.433594 3.609375-25.121094 6.230469-37.941406 7.910156-4.039063.527344-8.078126.96875-12.140626 1.296875-1.4375.121094-2.890624.230469-4.339843.320312-4.589844.300782-9.1875.472657-13.789063.523438-.921875.019531-1.839844.027344-2.761718.027344-1.75 0-3.507813-.007813-5.257813-.050782-.550781 0-1.089844-.019531-1.640625-.027343-.101562 0-.191406-.011719-.289062-.011719-9.980469-.269531-19.808594-1.089844-29.460938-2.46875-5.460938-.769531-10.871094-1.71875-16.210938-2.839844-113.945312-23.699218-199.414062-122.910156-203.386718-241.808594-.1796878-5.089843-.199219-10.199218-.0703128-15.289062.1406248-5.691406.4804688-11.371094.9999998-17.03125.160157-1.789062.351563-3.566406.550781-5.359375.832032-7.457031 2.160157-14.847656 3.492188-22.226563 24.1875-119.480468 131.296875-208 257.375-204.800781 133.296875 3.390625 240.21875 108.109375 248.917969 238.578125.539062 7.859375.699219 15.808594.5 23.839844zm0 0" fill="#3a3aeb"/><path d="m508.875 296.441406c-.078125.546875-.167969 1.097656-.257812 1.648438-14.808594 90.738281-77.148438 164.988281-160.089844 197.15625-6.9375 2.710937-14 5.089844-21.15625 7.171875-12.433594 3.609375-25.121094 6.230469-37.941406 7.910156-4.039063.527344-8.078126.96875-12.140626 1.296875-1.4375.121094-2.890624.230469-4.339843.320312-4.589844.300782-9.1875.472657-13.789063.523438-.921875.019531-1.839844.027344-2.761718.027344-1.75 0-3.507813-.007813-5.257813-.050782l-82.929687-82.96875 49-43.457031-124.878907-124.878906 77.449219-77.449219 92.167969 92.167969 42.351562-32.738281-85.839843-85.839844 67.46875-67.457031 122.058593 122.058593-20.320312 20.328126 1.421875 1.417968 30.328125-26.886718zm0 0" fill="#3233c4"/><path d="m419.414062 259.757812-140-18.808593v-81.191407l140 46.984376zm0 0" fill="#f03049"/><path d="m92.417969 259.757812 140-18.808593v-81.191407l-140 46.984376zm0 0" fill="#ff475a"/><path d="m279.414062 248.539062 140 12.609376v-19.875l-140-20.542969zm0 0" fill="#b4d2d7"/><path d="m232.417969 248.539062-140.082031 12.609376v-19.875l140.082031-20.542969zm0 0" fill="#cde1e6"/><path d="m343.542969 394.25-87.332031-24.578125v-.1875l-.335938.09375-.332031-.09375v.1875l-87.332031 24.578125v35.234375l87.664062-6.019531 87.667969 6.019531zm0 0" fill="#ff475a"/><path d="m343.667969 394.246094v35.238281l-87.792969-6.019531.125-53.886719.332031-.089844v.179688l34.667969 9.757812zm0 0" fill="#f03049"/><path d="m256 79.519531c-24.851562 0-45 18.09375-45 40.414063l10 259.582031 34.875 43.949219 35.125-43.949219 10-259.582031c0-22.320313-20.148438-40.414063-45-40.414063zm0 0" fill="#fff"/><path d="m301 119.933594-10 259.574218-35.125 43.957032.125-343.953125c24.851562 0 45 18.101562 45 40.421875zm0 0" fill="#ebf6fc"/><path d="m281.5 142.066406h-51v-17.75c0-13.945312 11.304688-25.25 25.25-25.25h.5c13.945312 0 25.25 11.304688 25.25 25.25zm0 0" fill="#ffbf00"/><path d="m281.5 124.316406v17.75h-25.523438l.015626-43h.257812c13.949219 0 25.25 11.308594 25.25 25.25zm0 0" fill="#ebb200"/></svg>