<svg height="150pt" viewBox="0 0 512 512" width="512pt" xmlns="http://www.w3.org/2000/svg"><path d="m512 256c0 140.550781-113.28125 254.660156-253.519531 255.980469-.832031.019531-1.652344.019531-2.480469.019531-2.378906 0-4.738281-.03125-7.101562-.101562-3.160157-.078126-6.296876-.226563-9.429688-.429688-6.917969-.4375-13.769531-1.160156-20.527344-2.140625-1.851562-.269531-3.691406-.558594-5.519531-.867187-1.121094-.191407-2.242187-.382813-3.351563-.589844-1.730468-.3125-3.449218-.640625-5.171874-.992188-116.898438-23.667968-204.898438-127-204.898438-250.878906 0-141.378906 114.621094-256 256-256 116.921875 0 215.53125 78.378906 246.160156 185.46875 2.449219 8.5625 4.460938 17.300781 6.019532 26.210938.019531.101562.03125.199218.050781.300781 1.007812 5.859375 1.828125 11.789062 2.441406 17.78125.027344.339843.066406.667969.097656 1.007812.25 2.53125.460938 5.082031.628907 7.628907.402343 5.820312.601562 11.691406.601562 17.601562zm0 0" fill="#ffbf00"/><path d="m96 345 166.886719 166.882812c138.195312-3.640624 249.113281-116.808593 249.113281-255.882812 0-5.910156-.199219-11.78125-.601562-17.601562-.167969-2.546876-.378907-5.097657-.628907-7.628907-.03125-.339843-.070312-.667969-.097656-1.007812-.601563-5.890625-1.40625-11.722657-2.394531-17.484375l-92.277344-92.277344zm0 0" fill="#edb101"/><path d="m295 391.5h-78l8.410156-65.847656h61.179688zm0 0" fill="#3a3aeb"/><path d="m295 391.5h-39v-65.84375h30.589844l1.261718 9.84375 5.488282 43zm0 0" fill="#3233c4"/><path d="m192 378.5h128v30h-128zm0 0" fill="#3a3aeb"/><path d="m256 378.5h64v30h-64zm0 0" fill="#3233c4"/><path d="m96 120h320v225h-320zm0 0" fill="#3a3aeb"/><path d="m256 120h160v225h-160zm0 0" fill="#3233c4"/><path d="m266 335.5c0 5.523438-4.476562 10-10 10s-10-4.476562-10-10 4.476562-10 10-10 10 4.476562 10 10zm0 0" fill="#fff"/><path d="m266 335.5c0 5.519531-4.480469 10-10 10v-20c5.519531 0 10 4.480469 10 10zm0 0" fill="#ebf6fc"/><path d="m126 150h260v165h-260zm0 0" fill="#fff"/><path d="m256 150h130v165h-130zm0 0" fill="#ebf6fc"/><path d="m313.316406 226.113281c0-.171875.011719-.339843.011719-.511719 0-33.195312-25.667969-60.105468-57.328125-60.105468v60.617187zm0 0" fill="#00cd71"/><path d="m261.84375 235.910156 40.265625 42.214844c10.394531-10.785156 16.875-25.703125 17.007813-42.214844zm0 0" fill="#edb101"/><path d="m249.253906 235.910156h-.042968v-.046875l-.003907-.003906.003907-.007813v-60.558593c-31.660157 0-57.328126 26.910156-57.328126 60.105469 0 33.191406 25.667969 60.101562 57.328126 60.101562 15.71875 0 29.957031-6.632812 40.308593-17.375zm0 0" fill="#ff475a"/><path d="m289.519531 278.128906c-8.839843 9.171875-20.507812 15.339844-33.519531 16.941406v-52.082031zm0 0" fill="#f03049"/></svg>