<svg height="150pt" viewBox="0 0 512 512.00015" width="512pt" xmlns="http://www.w3.org/2000/svg"><path d="m512 256.269531c0 .320313 0 .640625-.011719.960938 0 1.308593-.019531 2.621093-.046875 3.917969-.070312 3.480468-.203125 6.953124-.410156 10.402343-.589844 9.878907-1.742188 19.597657-3.421875 29.140625-15.539063 88.269532-76.308594 160.949219-157.5 193.257813-11.5 4.570312-23.398437 8.339843-35.640625 11.222656-4.839844 1.136719-9.738281 2.148437-14.679688 3.007813-10.148437 1.769531-20.507812 2.949218-31.039062 3.46875-.621094.042968-1.238281.070312-1.859375.101562-.332031.011719-.671875.03125-1 .039062-3.53125.152344-7.089844.210938-10.660156.210938-12.550781-.011719-24.898438-.929688-36.960938-2.699219-4.308593-.621093-8.578125-1.351562-12.808593-2.191406-.230469-.050781-.472657-.089844-.699219-.140625-12.929688-2.597656-25.492188-6.167969-37.621094-10.628906-3.519531-1.300782-7-2.667969-10.449219-4.121094-92.421875-38.6875-157.300781-130.039062-157.191406-236.488281.148438-141.378907 114.890625-255.878907 256.269531-255.730469 119.0625.128906 219.0625 81.511719 247.5625 191.640625.339844 1.328125.679688 2.660156 1 4 .699219 2.890625 1.347657 5.789063 1.949219 8.71875.390625 1.929687.769531 3.871094 1.109375 5.820313.121094.582031.21875 1.160156.320313 1.742187 1.140624 6.519531 2.019531 13.117187 2.648437 19.796875.421875 4.429688.722656 8.890625.910156 13.382812.160157 3.699219.230469 7.429688.230469 11.167969zm0 0" fill="#00ee84"/><path d="m508.109375 300.691406c-15.539063 88.269532-76.308594 160.949219-157.5 193.257813l-196.234375-198.023438 174.484375-174.484375zm0 0" fill="#00cd71"/><path d="m295.238281 289.417969 21.214844-21.214844 89.175781 89.179687-21.210937 21.214844zm0 0" fill="#d82b48"/><path d="m352.566406 362.402344 35.355469-35.355469 31.820313 31.820313-35.355469 35.355468zm0 0" fill="#f03049"/><path d="m380.765625 222.804688c0 69.035156-55.964844 125-125 125s-125-55.964844-125-125c0-69.039063 55.964844-125 125-125s125 55.960937 125 125zm0 0" fill="#ff475a"/><path d="m380.761719 222.800781c0 68.960938-55.832031 124.871094-124.761719 125v-250c68.929688.128907 124.761719 56.050781 124.761719 125zm0 0" fill="#f03049"/><path d="m351 222.804688c0 52.464843-42.53125 95-95 95s-95-42.535157-95-95c0-52.46875 42.53125-95 95-95s95 42.53125 95 95zm0 0" fill="#fff"/><path d="m351 222.800781c0 52.46875-42.53125 95-95 95v-190c52.46875 0 95 42.539063 95 95zm0 0" fill="#ebf6fc"/><path d="m308.5 274.304688v-.242188h-.039062c-.804688-28.289062-23.972657-50.980469-52.460938-50.980469s-51.65625 22.691407-52.460938 50.980469h-.039062v.242188zm0 0" fill="#3a3aeb"/><path d="m308.5 274.058594v.25h-52.5v-51.226563c28.488281 0 51.660156 22.6875 52.460938 50.976563zm0 0" fill="#3233c4"/><path d="m286 183.582031c0 16.566407-13.429688 30-30 30-16.566406 0-30-13.433593-30-30 0-16.570312 13.433594-30 30-30 16.570312 0 30 13.429688 30 30zm0 0" fill="#ffbf00"/><path d="m286 183.582031c0 16.566407-13.429688 30-30 30v-60c16.570312 0 30 13.429688 30 30zm0 0" fill="#ebb200"/></svg>