<svg height="150pt" viewBox="0 0 512 512.00015" width="512pt" xmlns="http://www.w3.org/2000/svg"><path d="m512 256.269531c0 .320313 0 .640625-.011719.960938 0 .328125 0 .660156-.007812.988281 0 .980469-.019531 1.960938-.039063 2.929688-.070312 3.480468-.203125 6.953124-.410156 10.402343-.03125.417969-.050781.839844-.082031 1.257813-.097657 1.511718-.210938 3.023437-.339844 4.523437-8.898437 108.007813-84.871094 197.007813-186.140625 225.257813-.078125.03125-.160156.050781-.238281.070312-3.230469.898438-6.480469 1.738282-9.761719 2.511719-.289062.066406-.578125.136719-.867188.199219-4.5625 1.058594-9.171874 2-13.8125 2.808594-10.148437 1.769531-20.507812 2.949218-31.039062 3.46875-.621094.042968-1.238281.070312-1.859375.101562-.332031.011719-.671875.03125-1 .039062-3.53125.152344-7.089844.210938-10.660156.210938-12.550781-.011719-24.898438-.929688-36.960938-2.699219-4.308593-.621093-8.578125-1.351562-12.808593-2.191406-.230469-.050781-.472657-.089844-.699219-.140625-12.929688-2.597656-25.492188-6.167969-37.621094-10.628906-3.519531-1.300782-7-2.667969-10.449219-4.121094-92.421875-38.6875-157.300781-130.039062-157.191406-236.488281.148438-141.378907 114.890625-255.878907 256.269531-255.730469 119.0625.128906 219.0625 81.511719 247.5625 191.640625.339844 1.328125.679688 2.660156 1 4 .699219 2.890625 1.347657 5.789063 1.949219 8.71875.390625 1.929687.769531 3.871094 1.109375 5.820313.121094.582031.21875 1.160156.320313 1.742187 1.140624 6.519531 2.019531 13.117187 2.648437 19.796875.421875 4.429688.722656 8.890625.910156 13.382812.160157 3.699219.230469 7.429688.230469 11.167969zm0 0" fill="#ff475a"/><path d="m511.109375 276.332031c-8.898437 108.007813-84.871094 197.007813-186.140625 225.257813l-68.9375-67.488282 100.429688-312.421874zm0 0" fill="#f03049"/><path d="m368.335938 285.351562c14.789062-21.730468 23.21875-47.992187 22.667968-76.21875-1.386718-71.152343-60.566406-129-132.992187-130.019531-75.464844-1.0625-136.980469 58.722657-136.980469 132.621094 0 27.238281 8.363281 52.554687 22.695312 73.617187l112.304688 148.75zm0 0" fill="#ffbf00"/><path d="m368.332031 285.351562-112.300781 148.75v-355c.660156 0 1.320312 0 1.980469.007813 72.429687 1.019531 131.609375 58.871094 132.988281 130.019531.558594 28.230469-7.878906 54.492188-22.667969 76.222656zm0 0" fill="#ebb200"/><path d="m356.03125 208.078125c0 55.230469-44.773438 100-100 100-55.230469 0-100-44.769531-100-100 0-55.226563 44.769531-100 100-100 55.226562 0 100 44.773437 100 100zm0 0" fill="#fff"/><path d="m356.03125 208.082031c0 55.226563-44.769531 100-100 100v-200c55.230469 0 100 44.769531 100 100zm0 0" fill="#ebf6fc"/><path d="m250.535156 245.765625v-32.734375c-10.207031-2.914062-17.695312-7.328125-22.460937-13.242188-7.59375-9.414062-9.394531-23.617187-4.558594-34.707031 1.335937-3.070312 3.21875-5.886719 5.496094-8.339843 5.390625-5.804688 12.5625-9.152344 21.523437-10.039063v-7.734375h11.328125v7.734375c8.28125.992187 14.867188 3.816406 19.765625 8.476563 4.894532 4.664062 8.019532 10.898437 9.375 18.710937l-19.765625 2.578125c-1.199219-6.144531-4.324219-10.3125-9.375-12.5v30.546875c5.3125 1.441406 10.59375 3.203125 15.511719 5.703125 3.5625 1.8125 7.027344 4.054688 9.695312 7.070312 6.972657 7.882813 8.402344 19.546876 6.296876 29.558594-1.203126 5.714844-3.847657 11.023438-7.714844 15.402344-5.703125 6.460938-13.632813 10.417969-23.789063 11.875v14.609375h-11.328125v-14.21875c-6.738281-.816406-13.316406-3.074219-18.730468-7.242187-5.011719-3.859376-8.652344-9.089844-10.957032-14.949219-1.480468-3.765625-2.441406-7.722657-3.046875-11.714844l20.390625-2.1875c.832032 4.167969 2.394532 7.761719 4.6875 10.78125 2.289063 3.023437 4.84375 5.210937 7.65625 6.5625zm0-82.03125c-3.074218 1.042969-5.519531 2.8125-7.34375 5.3125-3.464844 4.75-3.636718 11.148437-.234375 15.976563 1.667969 2.371093 4.191407 4.285156 7.578125 5.742187zm11.328125 83.125c3.90625-.726563 7.082031-2.539063 9.53125-5.429687 4.5-5.316407 5.074219-13.703126.585938-19.21875-2.058594-2.523438-5.429688-4.464844-10.117188-5.820313zm0 0" fill="#00ee84"/><path d="m287.070312 207.289062c-2.671874-3.019531-6.128906-5.257812-9.699218-7.070312-4.910156-2.5-10.191406-4.257812-15.511719-5.699219v-30.550781c5.050781 2.191406 8.179687 6.351562 9.378906 12.5l19.761719-2.578125c-1.351562-7.808594-4.480469-14.050781-9.371094-18.710937-4.898437-4.660157-11.488281-7.488282-19.769531-8.480469v-7.730469h-5.828125v139.761719h5.828125v-14.601563c10.160156-1.457031 18.089844-5.417968 23.789063-11.878906 3.871093-4.378906 6.511718-9.691406 7.722656-15.398438 2.097656-10.019531.667968-21.679687-6.300782-29.5625zm-15.679687 34.140626c-2.449219 2.890624-5.621094 4.699218-9.53125 5.429687v-30.46875c4.691406 1.359375 8.0625 3.300781 10.121094 5.820313 4.488281 5.519531 3.917969 13.898437-.589844 19.21875zm0 0" fill="#00cd71"/></svg>