<svg id="Capa_1" enable-background="new 0 0 512 512" height="60" viewBox="0 0 512 512" width="60"  xmlns="http://www.w3.org/2000/svg"><g><g><g><g><g><g><g><g><g><circle cx="256" cy="256" fill="#7584f2" r="256"/></g></g></g></g></g></g></g></g><path d="m512 256c0-.574-.002-1.148-.006-1.722l-136.762-136.762-274.41 292.479 94.857 94.857c19.343 4.672 39.543 7.148 60.321 7.148 141.385 0 256-114.615 256-256z" fill="#4855b7"/><g><g><path d="m317.716 60h-180.948v316.383h238.464v-258.868z" fill="#fff"/></g><g><path d="m375.231 117.515-57.515-57.515h-61.716v316.383h119.231z" fill="#e9edf5"/></g><g><path d="m317.717 117.516h57.515l-57.516-57.516z" fill="#cdd2e1"/></g></g><g><path d="m412.928 409.995h-312.106v-222.604h85.237l31.916 30.193h194.953z" fill="#ffce00"/></g><g><path d="m256 217.584h156.928v192.411h-156.928z" fill="#fdba12"/></g><g><path d="m268.883 172.632-12.883 8.609-12.883-8.609c-10.861-7.258-17.382-19.458-17.382-32.521v-27.547l30.265-12.078 30.265 12.077v27.547c0 13.064-6.521 25.264-17.382 32.522z" fill="#ffce00"/></g><g><path d="m256 100.498v80.725l12.883-8.591c10.861-7.258 17.382-19.458 17.382-32.521v-27.547z" fill="#fdba12"/></g><g><circle cx="256" cy="315.71" fill="#fa0" r="69.144"/></g><g><path d="m325.144 315.71c0-38.177-30.97-69.128-69.144-69.143v138.286c38.174-.015 69.144-30.965 69.144-69.143z" fill="#ff9500"/></g><g><path d="m280.289 296.144c0-13.414-10.875-24.289-24.289-24.289-13.415 0-24.289 10.875-24.289 24.289 0 8.149 4.013 15.36 10.17 19.766v43.656h28.238v-43.656c6.157-4.406 10.17-11.617 10.17-19.766z" fill="#636978"/></g><g><path d="m256 271.855v87.71h14.119v-43.655c6.157-4.406 10.17-11.617 10.17-19.766 0-13.405-10.888-24.273-24.289-24.289z" fill="#414952"/></g></g></svg>